HIERARCHY
ROOT Hips
{
	OFFSET 48.118599 -7.462134 84.195099
	CHANNELS 6 Xposition Yposition Zposition Xrotation Yrotation Zrotation
	JOINT spine
	{
		OFFSET 0.000000 -0.359108 6.244789
		CHANNELS 3 Xrotation Yrotation Zrotation
		JOINT spine1
		{
			OFFSET 0.000000 -0.000001 9.069412
			CHANNELS 3 Xrotation Yrotation Zrotation
			JOINT spine2
			{
				OFFSET 0.000000 -0.000001 8.690140
				CHANNELS 3 Xrotation Yrotation Zrotation
				JOINT Neck
				{
					OFFSET 0.000000 -1.063723 22.311195
					CHANNELS 3 Xrotation Yrotation Zrotation
					JOINT Head
					{
						OFFSET 0.000000 -0.000001 6.740814
						CHANNELS 3 Xrotation Yrotation Zrotation
						End Site
						{
							OFFSET 0.000000 5.380967 16.316498
						}
					}
				}
				JOINT RightShoulder
				{
					OFFSET -3.659161 0.509512 9.384682
					CHANNELS 3 Xrotation Yrotation Zrotation
					JOINT RightArm
					{
						OFFSET 0.000000 -0.000002 12.308899
						CHANNELS 3 Xrotation Yrotation Zrotation
						JOINT RightArmRoll
						{
							OFFSET 0.000000 -0.000001 6.213745
							CHANNELS 3 Xrotation Yrotation Zrotation
							JOINT RightForeArm
							{
								OFFSET 0.000000 -0.000003 18.098495
								CHANNELS 3 Xrotation Yrotation Zrotation
								JOINT RightForeArmRoll
								{
									OFFSET 0.000000 -0.000001 6.972794
									CHANNELS 3 Xrotation Yrotation Zrotation
									JOINT RightHand
									{
										OFFSET 0.000000 -0.000002 13.992905
										CHANNELS 3 Xrotation Yrotation Zrotation
										End Site
										{
											OFFSET 0.000000 0.000000 0.100006
										}
									}
								}
							}
						}
					}
				}
				JOINT LeftShoulder
				{
					OFFSET 3.659161 0.509512 9.384682
					CHANNELS 3 Xrotation Yrotation Zrotation
					JOINT LeftArm
					{
						OFFSET 0.000000 -0.000002 12.308899
						CHANNELS 3 Xrotation Yrotation Zrotation
						JOINT LeftArmRoll
						{
							OFFSET 0.000000 -0.000001 6.213745
							CHANNELS 3 Xrotation Yrotation Zrotation
							JOINT LeftForeArm
							{
								OFFSET 0.000000 -0.000003 18.098495
								CHANNELS 3 Xrotation Yrotation Zrotation
								JOINT LeftForeArmRoll
								{
									OFFSET 0.000000 -0.000001 6.972794
									CHANNELS 3 Xrotation Yrotation Zrotation
									JOINT LeftHand
									{
										OFFSET 0.000000 -0.000002 13.992905
										CHANNELS 3 Xrotation Yrotation Zrotation
										End Site
										{
											OFFSET 0.000000 0.000000 0.100006
										}
									}
								}
							}
						}
					}
				}
			}
		}
	}
	JOINT RightUpLeg
	{
		OFFSET -5.535149 0.851454 -1.014999
		CHANNELS 3 Xrotation Yrotation Zrotation
		JOINT RightUpLegRoll
		{
			OFFSET 0.000000 -0.000003 16.407501
			CHANNELS 3 Xrotation Yrotation Zrotation
			JOINT RightLeg
			{
				OFFSET 0.000000 0.000003 -20.318100
				CHANNELS 3 Xrotation Yrotation Zrotation
				JOINT RightLegRoll
				{
					OFFSET 0.000000 -0.000003 20.384598
					CHANNELS 3 Xrotation Yrotation Zrotation
					JOINT RightFoot
					{
						OFFSET 0.000000 -0.000003 16.966797
						CHANNELS 3 Xrotation Yrotation Zrotation
						JOINT RightToeBase
						{
							OFFSET 0.000000 -0.000002 14.183395
							CHANNELS 3 Xrotation Yrotation Zrotation
							End Site
							{
								OFFSET 0.006012 0.791745 6.868896
							}
						}
					}
				}
			}
		}
	}
	JOINT LeftUpLeg
	{
		OFFSET 5.535149 0.851454 -1.014999
		CHANNELS 3 Xrotation Yrotation Zrotation
		JOINT LeftUpLegRoll
		{
			OFFSET 0.000000 -0.000003 16.407600
			CHANNELS 3 Xrotation Yrotation Zrotation
			JOINT LeftLeg
			{
				OFFSET 0.000000 -0.000003 20.318100
				CHANNELS 3 Xrotation Yrotation Zrotation
				JOINT LeftLegRoll
				{
					OFFSET 0.000000 -0.000003 20.573097
					CHANNELS 3 Xrotation Yrotation Zrotation
					JOINT LeftFoot
					{
						OFFSET 0.000000 -0.000003 16.778305
						CHANNELS 3 Xrotation Yrotation Zrotation
						JOINT LeftToeBase
						{
							OFFSET 0.000000 -0.000002 14.183395
							CHANNELS 3 Xrotation Yrotation Zrotation
							End Site
							{
								OFFSET -0.026943 0.791745 6.868896
							}
						}
					}
				}
			}
		}
	}
}
MOTION
Frames: 12
Frame Time: 0.041667
46.030201 -1.798475 83.982193 0.439895 -0.410251 -3.331691 -1.367628 0.228120 -0.034204 1.267683 0.472394 -0.056909 2.912780 0.471677 -0.062564 4.374228 -2.268809 0.379390 2.449825 0.690078 0.710590 -3.619628 -68.444130 -5.136879 -36.511090 -107.699311 -20.722169 -0.000001 -0.000000 -0.000001 3.982403 -7.156022 -0.384177 0.000003 0.000005 -3.000000 -5.000246 -7.999062 0.000120 -18.679814 58.801256 22.072994 -9.010712 112.337002 -3.707413 0.000001 0.000006 0.000001 20.771292 7.252772 -0.720783 -0.000001 -0.000006 2.999999 -5.000316 7.999072 -0.000148 -7.195773 -174.447799 2.254671 -179.999991 0.000005 -0.825997 167.929381 -2.660933 -1.155800 -0.000004 -0.000001 0.026784 69.233468 5.779081 5.004484 25.456889 -7.354440 -0.000004 0.124617 176.057005 -2.863728 -0.000005 -0.000004 -1.072990 -12.353271 0.846668 0.863445 0.000001 0.000000 -0.523523 76.561803 -6.702785 -2.095952 25.684527 7.347026 -0.336311 
46.029896 -1.784144 83.973701 0.456377 -0.410684 -3.308589 -1.366301 0.227804 -0.034210 1.270343 0.470710 -0.056949 2.915429 0.469992 -0.062584 4.372128 -2.266453 0.373092 2.421989 0.648807 0.708701 -3.565833 -68.422861 -5.074605 -36.170537 -107.594495 -20.268397 -0.000001 -0.000001 -0.000002 3.953897 -7.084713 -0.392959 0.000003 0.000005 -3.000001 -5.000246 -7.999062 0.000120 -18.677851 58.822286 22.070670 -8.969534 112.297394 -3.916513 0.000001 0.000006 0.000001 20.542929 7.140293 -0.686882 0.000002 -0.000006 2.999999 -5.000316 7.999071 -0.000146 -7.211974 -174.449971 2.252613 -179.999991 0.000005 -0.825997 167.912742 -2.663694 -1.156201 -0.000003 -0.000001 0.026793 69.250871 5.781193 4.999665 25.456892 -7.354441 -0.000005 0.102778 176.048003 -2.870334 -0.000005 -0.000004 -1.073030 -12.366802 0.855793 0.864064 0.000003 0.000000 -0.522786 76.565587 -6.702732 -2.097022 25.685741 7.347019 -0.338007 
46.034100 -1.806676 83.973091 0.472689 -0.411231 -3.285747 -1.364981 0.227468 -0.034220 1.272973 0.468978 -0.056980 2.918068 0.468261 -0.062594 4.370716 -2.262927 0.366875 2.393675 0.606691 0.706729 -3.509486 -68.401817 -5.009486 -35.827952 -107.489446 -19.808498 -0.000001 -0.000001 -0.000001 3.922430 -7.010306 -0.402149 0.000003 0.000005 -2.999999 -5.000246 -7.999061 0.000121 -18.676310 58.843869 22.068840 -8.928898 112.255805 -4.126117 0.000001 0.000006 -0.000000 20.312460 7.027487 -0.653991 -0.000001 -0.000006 3.000000 -5.000317 7.999071 -0.000148 -7.228203 -174.453167 2.250649 -179.999991 0.000006 -0.825997 167.895790 -2.666464 -1.156621 -0.000004 -0.000001 0.026808 69.268493 5.783242 4.995022 25.456895 -7.354440 -0.000004 0.081253 176.039001 -2.877342 -0.000005 -0.000005 -1.073080 -12.380736 0.865421 0.864705 0.000003 0.000000 -0.521996 76.569194 -6.702766 -2.098112 25.687051 7.347018 -0.339953 
46.031399 -1.807755 83.972389 0.488872 -0.411854 -3.263106 -1.363669 0.227119 -0.034233 1.275603 0.467214 -0.057004 2.920698 0.466496 -0.062597 4.369783 -2.258573 0.360715 2.365027 0.563986 0.704684 -3.451346 -68.380801 -4.942367 -35.479411 -107.385750 -19.339696 -0.000001 -0.000001 -0.000000 3.888918 -6.933737 -0.411582 0.000002 0.000005 -2.999998 -5.000247 -7.999061 0.000119 -18.675088 58.865821 22.067366 -8.887691 112.215206 -4.337230 0.000001 0.000006 0.000001 20.080471 6.914427 -0.622100 0.000000 -0.000005 3.000000 -5.000317 7.999071 -0.000147 -7.244442 -174.455326 2.248550 -179.999991 0.000006 -0.825997 167.878660 -2.668243 -1.156839 -0.000003 -0.000001 0.026824 69.286088 5.785285 4.990377 25.456892 -7.354442 -0.000004 0.059947 176.029999 -2.884640 -0.000005 -0.000004 -1.073140 -12.394771 0.875399 0.865361 0.000002 0.000000 -0.521167 76.572780 -6.702778 -2.099301 25.688471 7.347022 -0.342097 
46.020397 -1.817532 83.981094 0.504989 -0.412516 -3.240565 -1.362361 0.226761 -0.034247 1.278213 0.465430 -0.057023 2.923307 0.464714 -0.062596 4.369127 -2.253738 0.354587 2.336187 0.520945 0.702578 -3.392261 -68.359976 -4.874188 -35.127154 -107.282703 -18.865391 -0.000000 -0.000000 -0.000001 3.854222 -6.855929 -0.421112 0.000003 0.000005 -3.000000 -5.000248 -7.999061 0.000118 -18.674051 58.888047 22.066140 -8.846674 112.173631 -4.548541 0.000001 0.000006 0.000000 19.847782 6.801156 -0.591180 -0.000000 -0.000005 2.999999 -5.000315 7.999071 -0.000148 -7.260693 -174.458509 2.246569 -179.999991 0.000005 -0.825997 167.861406 -2.671009 -1.157277 -0.000004 -0.000002 0.026844 69.303785 5.787292 4.985819 25.456894 -7.354443 -0.000002 0.038761 176.019999 -2.892100 -0.000005 -0.000004 -1.073210 -12.409008 0.885579 0.866029 0.000002 -0.000000 -0.520317 76.576365 -6.702765 -2.100486 25.689984 7.347018 -0.344333 
46.021198 -1.820943 83.977791 0.521093 -0.413178 -3.218042 -1.361048 0.226400 -0.034262 1.280822 0.463642 -0.057042 2.925927 0.462925 -0.062593 4.368532 -2.248795 0.348467 2.307308 0.477821 0.700424 -3.332999 -68.339041 -4.805819 -34.769300 -107.181132 -18.385008 -0.000000 -0.000002 -0.000002 3.819253 -6.777798 -0.430598 0.000002 0.000005 -3.000000 -5.000246 -7.999061 0.000119 -18.673037 58.910265 22.064924 -8.805515 112.132063 -4.760104 0.000001 0.000006 -0.000000 19.614992 6.687732 -0.561200 -0.000004 -0.000005 3.000002 -5.000318 7.999072 -0.000150 -7.276952 -174.460694 2.244450 -179.999991 0.000005 -0.825998 167.844058 -2.673760 -1.157703 -0.000003 -0.000002 0.026863 69.321393 5.789312 4.981270 25.456895 -7.354441 -0.000004 0.017612 176.010997 -2.899594 -0.000005 -0.000005 -1.073280 -12.423243 0.895808 0.866703 0.000003 0.000000 -0.519461 76.579951 -6.702776 -2.101675 25.691502 7.347019 -0.346611 
46.031197 -1.827962 83.973793 0.537227 -0.413801 -3.195470 -1.359739 0.226044 -0.034275 1.283442 0.461863 -0.057062 2.928545 0.461147 -0.062592 4.367807 -2.244090 0.342331 2.278531 0.434869 0.698236 -3.274387 -68.318079 -4.738161 -34.407843 -107.080270 -17.901731 -0.000001 -0.000001 0.000001 3.784899 -6.700281 -0.439890 0.000003 0.000005 -3.000000 -5.000246 -7.999061 0.000119 -18.671943 58.932409 22.063618 -8.764209 112.090508 -4.971631 0.000001 0.000006 -0.000001 19.382909 6.574203 -0.532144 -0.000002 -0.000005 3.000001 -5.000314 7.999072 -0.000145 -7.293202 -174.462880 2.242354 -179.999991 0.000006 -0.825997 167.826818 -2.675549 -1.157934 -0.000004 -0.000002 0.026882 69.339104 5.791335 4.976615 25.456894 -7.354442 -0.000002 -0.003603 176.001995 -2.906999 -0.000005 -0.000005 -1.073350 -12.437481 0.905936 0.867380 0.000003 0.000000 -0.518616 76.583544 -6.702784 -2.102862 25.693008 7.347018 -0.348828 
46.025799 -1.839495 83.976402 0.553450 -0.414348 -3.172768 -1.358432 0.225699 -0.034287 1.286072 0.460108 -0.057087 2.931165 0.459391 -0.062595 4.366733 -2.239966 0.336154 2.249983 0.392341 0.696030 -3.217222 -68.296967 -4.672118 -34.039214 -106.981813 -17.413125 -0.000001 -0.000001 -0.000003 3.752046 -6.624290 -0.448871 0.000003 0.000005 -3.000002 -5.000246 -7.999062 0.000121 -18.670631 58.954272 22.062034 -8.722412 112.049950 -5.183091 0.000001 0.000005 -0.000001 19.152132 6.460635 -0.503956 -0.000000 -0.000006 3.000000 -5.000317 7.999071 -0.000149 -7.309440 -174.466049 2.240387 -179.999991 0.000005 -0.825997 167.809770 -2.678303 -1.158363 -0.000004 -0.000001 0.026898 69.356712 5.793370 4.971966 25.456894 -7.354441 -0.000004 -0.024974 175.993006 -2.914185 -0.000005 -0.000004 -1.073410 -12.451519 0.915814 0.868053 0.000003 0.000000 -0.517798 76.587225 -6.702750 -2.103941 25.694425 7.347023 -0.350921 
46.024494 -1.840084 83.971397 0.569818 -0.414780 -3.149856 -1.357110 0.225369 -0.034296 1.288711 0.458391 -0.057120 2.933815 0.457674 -0.062608 4.365113 -2.236790 0.329914 2.221818 0.350493 0.693820 -3.162307 -68.275698 -4.608559 -33.667153 -106.884141 -16.924282 -0.000000 -0.000001 -0.000001 3.721573 -6.550761 -0.457410 0.000004 0.000005 -2.999999 -5.000246 -7.999062 0.000117 -18.669026 58.975760 22.060104 -8.680130 112.010390 -5.394189 0.000000 0.000008 0.000001 18.923473 6.347076 -0.476595 -0.000001 -0.000005 3.000002 -5.000316 7.999071 -0.000151 -7.325659 -174.468248 2.238317 -179.999991 0.000006 -0.825998 167.792927 -2.681070 -1.158787 -0.000003 -0.000002 0.026911 69.374231 5.795419 4.967325 25.456895 -7.354440 -0.000003 -0.046594 175.984004 -2.921027 -0.000005 -0.000004 -1.073460 -12.465253 0.925288 0.868716 0.000002 0.000000 -0.517024 76.590825 -6.702783 -2.105029 25.695739 7.347014 -0.352793 
46.022598 -1.846143 83.971588 0.586376 -0.415057 -3.126642 -1.355779 0.225061 -0.034301 1.291371 0.456726 -0.057163 2.936474 0.456009 -0.062631 4.362745 -2.234903 0.323584 2.194182 0.309578 0.691624 -3.110405 -68.254149 -4.548373 -33.288201 -106.788956 -16.432790 -0.000001 -0.000001 0.000000 3.694372 -6.480624 -0.465386 0.000003 0.000005 -2.999998 -5.000246 -7.999061 0.000121 -18.666849 58.996517 22.057500 -8.637384 111.971833 -5.604391 0.000000 0.000007 -0.000003 18.697522 6.233576 -0.449986 -0.000002 -0.000005 3.000001 -5.000316 7.999071 -0.000147 -7.341847 -174.471418 2.236407 -179.999991 0.000006 -0.825998 167.776384 -2.683841 -1.159200 -0.000004 -0.000002 0.026918 69.391662 5.797521 4.962397 25.456894 -7.354440 -0.000003 -0.068555 175.975002 -2.927418 -0.000005 -0.000004 -1.073490 -12.478687 0.934212 0.869366 0.000004 0.000000 -0.516309 76.594622 -6.702746 -2.106001 25.696744 7.347014 -0.354363 
46.024101 -1.847692 83.973999 0.603174 -0.415142 -3.103060 -1.354430 0.224781 -0.034302 1.294061 0.455127 -0.057220 2.939164 0.454410 -0.062669 4.359412 -2.234674 0.317143 2.167222 0.269849 0.689459 -3.062331 -68.232210 -4.492428 -32.904262 -106.695478 -15.941930 -0.000002 -0.000001 0.000002 3.671329 -6.414793 -0.472695 0.000003 0.000005 -3.000001 -5.000247 -7.999062 0.000119 -18.664083 59.016543 22.054191 -8.593840 111.935257 -5.813875 0.000000 0.000006 0.000001 18.475086 6.120191 -0.424105 -0.000002 -0.000006 3.000000 -5.000316 7.999071 -0.000147 -7.358003 -174.474587 2.234534 -179.999991 0.000005 -0.825997 167.760333 -2.686602 -1.159574 -0.000004 -0.000001 0.026919 69.408888 5.799671 4.957387 25.456895 -7.354441 -0.000004 -0.090956 175.966000 -2.933211 -0.000005 -0.000005 -1.073490 -12.491519 0.942432 0.869993 0.000001 0.000000 -0.515671 76.598447 -6.702757 -2.106874 25.697555 7.347023 -0.355573 
46.025597 -1.853663 83.972900 0.620277 -0.414995 -3.079017 -1.353070 0.224535 -0.034297 1.296791 0.453609 -0.057293 2.941893 0.452891 -0.062724 4.354925 -2.236431 0.310563 2.141066 0.231559 0.687343 -3.018870 -68.209992 -4.441619 -32.513695 -106.604589 -15.451085 -0.000000 -0.000000 -0.000002 3.653325 -6.354211 -0.479227 0.000003 0.000005 -2.999998 -5.000247 -7.999062 0.000119 -18.660647 59.035750 22.050079 -8.549893 111.899706 -6.021810 0.000000 0.000007 -0.000000 18.256862 6.006966 -0.398872 0.000000 -0.000005 3.000000 -5.000317 7.999071 -0.000148 -7.374111 -174.477756 2.232706 -179.999991 0.000005 -0.825997 167.744679 -2.690355 -1.160159 -0.000004 -0.000001 0.026913 69.425936 5.801889 4.952199 25.456895 -7.354442 -0.000003 -0.113885 175.957011 -2.938281 -0.000005 -0.000005 -1.073460 -12.503949 0.949798 0.870596 0.000003 0.000000 -0.515124 76.602259 -6.702768 -2.107748 25.698061 7.347017 -0.356319 
